# xmcd CD database file
#
# Track frame offsets:
#	150
#	27563
#	45998
#	71937
#	94819
#	117408
#	143398
#
# Disc length: 2881 seconds
#
# Revision: 0
# Processed by: cddbd v1.5.2PL0 Copyright (c) Steve Scherf et al.
# Submitted via: CDex 1.77
#
DISCID=5d0b3f07
DTITLE=The Rod Garfield Blues Band - In The Raw
DYEAR=2004
DGENRE=Blues
TTITLE0=World In A Jug
TTITLE1=Crossroads
TTITLE2=Dimples
TTITLE3=Bright Lights
TTITLE4=Walking The Dog
TTITLE5=Walkin' Blues
TTITLE6=Hard Work
EXTD=YEAR: 2004
EXTT0=
EXTT1=
EXTT2=
EXTT3=
EXTT4=
EXTT5=
EXTT6=
PLAYORDER=
